<svg width="142" height="48" viewBox="0 0 142 48" fill="none" xmlns="http://www.w3.org/2000/svg">
    <path d="M60.8477 1.69336H64.8191C66.1755 1.69336 67.1742 1.99576 67.8154 2.60056C68.4657 3.19591 68.7908 4.02279 68.7908 5.08119C68.7908 6.13957 68.4657 6.97118 67.8154 7.57598C67.1742 8.17133 66.1755 8.469 64.8191 8.469H63.356V11.6158H60.8477V1.69336ZM64.5405 6.37111C65.1815 6.37111 65.6321 6.26243 65.8921 6.04509C66.1523 5.82772 66.2824 5.50643 66.2824 5.08119C66.2824 4.65593 66.1523 4.33463 65.8921 4.11727C65.6321 3.89993 65.1815 3.79127 64.5405 3.79127H63.356V6.37111H64.5405Z" fill="#266AC7"></path>
    <path d="M73.2528 11.8002C72.7326 11.8002 72.2447 11.7246 71.7895 11.5734C71.3343 11.4128 70.9349 11.1718 70.5912 10.8505C70.2474 10.5292 69.9779 10.1276 69.7829 9.64563C69.5879 9.15423 69.4902 8.5825 69.4902 7.93045V7.64696C69.4902 7.03271 69.5879 6.49406 69.7829 6.03101C69.9779 5.56797 70.2474 5.18051 70.5912 4.86866C70.9349 4.55682 71.3343 4.32056 71.7895 4.15991C72.2447 3.99927 72.7326 3.91895 73.2528 3.91895C73.7732 3.91895 74.2609 3.99927 74.7161 4.15991C75.1713 4.32056 75.5707 4.55682 75.9144 4.86866C76.2582 5.18051 76.5277 5.56797 76.7227 6.03101C76.918 6.49406 77.0154 7.03271 77.0154 7.64696V7.93045C77.0154 8.57305 76.918 9.14005 76.7227 9.63145C76.5277 10.1134 76.2582 10.515 75.9144 10.8363C75.5707 11.1576 75.1713 11.3986 74.7161 11.5592C74.2609 11.7199 73.7732 11.8002 73.2528 11.8002ZM73.2528 9.98582C73.7546 9.98582 74.1401 9.80154 74.4094 9.433C74.6789 9.06446 74.8135 8.56361 74.8135 7.93045V7.64696C74.8135 7.07997 74.6789 6.62163 74.4094 6.27198C74.1401 5.91288 73.7546 5.73332 73.2528 5.73332C72.751 5.73332 72.3655 5.91288 72.0962 6.27198C71.8267 6.62163 71.6921 7.07997 71.6921 7.64696V7.93045C71.6921 8.5825 71.8267 9.08808 72.0962 9.44718C72.3655 9.80628 72.751 9.98582 73.2528 9.98582Z" fill="#266AC7"></path>
    <path d="M81.6083 11.8002C81.0602 11.8002 80.5537 11.7199 80.0893 11.5592C79.6341 11.3986 79.2391 11.1576 78.9046 10.8363C78.5702 10.515 78.3102 10.1134 78.1243 9.63145C77.9386 9.14949 77.8457 8.5825 77.8457 7.93045V7.64696C77.8457 7.05161 77.9431 6.52242 78.1384 6.05935C78.3427 5.5963 78.612 5.20887 78.9466 4.897C79.2904 4.57571 79.6898 4.33474 80.145 4.17409C80.6002 4.00398 81.0879 3.91895 81.6083 3.91895C82.1657 3.91895 82.6534 3.99453 83.0713 4.14573C83.4989 4.29693 83.8565 4.50483 84.1446 4.76943C84.4325 5.02457 84.6554 5.32697 84.8134 5.67663C84.9712 6.02628 85.0643 6.39955 85.092 6.79646H82.8904C82.8159 6.45625 82.6765 6.19639 82.4722 6.01683C82.2771 5.82783 81.989 5.73332 81.6083 5.73332C81.153 5.73332 80.7768 5.89399 80.4794 6.21528C80.1915 6.52713 80.0474 7.00435 80.0474 7.64696V7.93045C80.0474 8.62975 80.1868 9.14478 80.4656 9.47552C80.7535 9.80628 81.1344 9.97166 81.6083 9.97166C81.9334 9.97166 82.2074 9.8866 82.4304 9.71651C82.6627 9.53695 82.8159 9.27235 82.8904 8.9227H85.092C85.0643 9.36686 84.9619 9.76847 84.7855 10.1276C84.6089 10.4772 84.3675 10.7749 84.0608 11.0206C83.7636 11.2663 83.406 11.46 82.9878 11.6018C82.5791 11.7341 82.1191 11.8002 81.6083 11.8002Z" fill="#266AC7"></path>
    <path d="M89.6239 11.8002C89.0756 11.8002 88.5693 11.7199 88.1048 11.5592C87.6495 11.3986 87.2547 11.1576 86.9203 10.8363C86.5858 10.515 86.3259 10.1134 86.1399 9.63145C85.9542 9.14949 85.8613 8.5825 85.8613 7.93045V7.64696C85.8613 7.05161 85.9587 6.52242 86.154 6.05935C86.3583 5.5963 86.6276 5.20887 86.962 4.897C87.3058 4.57571 87.7054 4.33474 88.1606 4.17409C88.6158 4.00398 89.1035 3.91895 89.6239 3.91895C90.1813 3.91895 90.669 3.99453 91.087 4.14573C91.5145 4.29693 91.8721 4.50483 92.1602 4.76943C92.4481 5.02457 92.671 5.32697 92.8291 5.67663C92.9869 6.02628 93.0797 6.39955 93.1077 6.79646H90.9058C90.8315 6.45625 90.6921 6.19639 90.4878 6.01683C90.2928 5.82783 90.0047 5.73332 89.6239 5.73332C89.1687 5.73332 88.7922 5.89399 88.495 6.21528C88.2071 6.52713 88.063 7.00435 88.063 7.64696V7.93045C88.063 8.62975 88.2024 9.14478 88.4812 9.47552C88.7691 9.80628 89.1501 9.97166 89.6239 9.97166C89.949 9.97166 90.2231 9.8866 90.446 9.71651C90.6783 9.53695 90.8315 9.27235 90.9058 8.9227H93.1077C93.0797 9.36686 92.9776 9.76847 92.8011 10.1276C92.6245 10.4772 92.3832 10.7749 92.0764 11.0206C91.7792 11.2663 91.4214 11.46 91.0034 11.6018C90.5947 11.7341 90.1347 11.8002 89.6239 11.8002Z" fill="#266AC7"></path>
    <path d="M94.1562 4.10303H96.2466V8.63901L99.3821 4.10303H101.263V11.6158H99.173V7.07978L96.0375 11.6158H94.1562V4.10303Z" fill="#266AC7"></path>
    <path d="M102.662 4.10314H104.752V8.63912L107.888 4.10314H109.769V11.6159H107.679V7.07989L104.543 11.6159H102.662V4.10314ZM106.216 3.32352C105.305 3.32352 104.66 3.14869 104.279 2.79904C103.898 2.43994 103.707 1.90601 103.707 1.19727H105.603C105.603 1.51856 105.654 1.74064 105.756 1.86349C105.858 1.98634 106.011 2.04776 106.216 2.04776C106.42 2.04776 106.573 1.98634 106.676 1.86349C106.778 1.74064 106.829 1.51856 106.829 1.19727H108.724C108.724 1.90601 108.534 2.43994 108.153 2.79904C107.772 3.14869 107.126 3.32352 106.216 3.32352Z" fill="#266AC7"></path>
    <path d="M114.651 11.8002C114.103 11.8002 113.597 11.7199 113.132 11.5592C112.677 11.3986 112.282 11.1576 111.948 10.8363C111.613 10.515 111.353 10.1134 111.167 9.63145C110.982 9.14949 110.889 8.5825 110.889 7.93045V7.64696C110.889 7.05161 110.986 6.52242 111.181 6.05935C111.386 5.5963 111.655 5.20887 111.99 4.897C112.333 4.57571 112.733 4.33474 113.188 4.17409C113.643 4.00398 114.131 3.91895 114.651 3.91895C115.209 3.91895 115.696 3.99453 116.115 4.14573C116.542 4.29693 116.899 4.50483 117.188 4.76943C117.475 5.02457 117.698 5.32697 117.856 5.67663C118.014 6.02628 118.107 6.39955 118.135 6.79646H115.933C115.859 6.45625 115.72 6.19639 115.515 6.01683C115.32 5.82783 115.032 5.73332 114.651 5.73332C114.196 5.73332 113.82 5.89399 113.522 6.21528C113.234 6.52713 113.091 7.00435 113.091 7.64696V7.93045C113.091 8.62975 113.23 9.14478 113.509 9.47552C113.797 9.80628 114.177 9.97166 114.651 9.97166C114.976 9.97166 115.25 9.8866 115.473 9.71651C115.706 9.53695 115.859 9.27235 115.933 8.9227H118.135C118.107 9.36686 118.005 9.76847 117.828 10.1276C117.652 10.4772 117.411 10.7749 117.104 11.0206C116.807 11.2663 116.449 11.46 116.031 11.6018C115.622 11.7341 115.162 11.8002 114.651 11.8002Z" fill="#266AC7"></path>
    <path d="M119.182 4.10303H121.328V6.95218H121.885L123.948 4.10303H126.289L123.572 7.63259L126.428 11.6158H123.892L121.885 8.62485H121.328V11.6158H119.182V4.10303Z" fill="#266AC7"></path>
    <path d="M129.43 11.8002C129.031 11.8002 128.673 11.7388 128.357 11.6159C128.051 11.4931 127.791 11.3277 127.577 11.1198C127.363 10.9025 127.201 10.652 127.089 10.3686C126.978 10.0756 126.922 9.75903 126.922 9.41882C126.922 8.67227 127.145 8.10056 127.591 7.70366C128.046 7.30676 128.729 7.1083 129.639 7.1083H131.744V6.79646C131.744 6.34286 131.637 6.03101 131.423 5.8609C131.209 5.68136 130.917 5.59159 130.545 5.59159C130.192 5.59159 129.932 5.64829 129.765 5.76168C129.598 5.87508 129.505 6.05464 129.486 6.30034H127.34C127.359 5.96013 127.442 5.64829 127.591 5.36478C127.739 5.07183 127.949 4.82141 128.218 4.61351C128.497 4.39617 128.836 4.22606 129.235 4.10322C129.635 3.98035 130.095 3.91895 130.615 3.91895C131.098 3.91895 131.539 3.97564 131.939 4.08904C132.348 4.19299 132.696 4.36781 132.984 4.61351C133.272 4.84975 133.495 5.16162 133.653 5.54905C133.811 5.92706 133.89 6.39011 133.89 6.93821V9.70233C133.89 10.0992 133.899 10.4489 133.918 10.7513C133.936 11.0442 133.964 11.3325 134.001 11.6159H131.967C131.948 11.4553 131.93 11.3135 131.911 11.1907C131.902 11.0678 131.897 10.9166 131.897 10.7371C131.674 11.0395 131.363 11.2947 130.963 11.5025C130.573 11.701 130.062 11.8002 129.43 11.8002ZM130.127 10.2693C130.582 10.2693 130.963 10.137 131.27 9.87242C131.586 9.60783 131.744 9.244 131.744 8.78095V8.4691H130.057C129.742 8.4691 129.505 8.55416 129.347 8.72425C129.198 8.89434 129.124 9.0928 129.124 9.31961C129.124 9.59365 129.198 9.82046 129.347 10C129.505 10.1796 129.765 10.2693 130.127 10.2693Z" fill="#266AC7"></path>
    <path d="M136.747 8.83746C136.189 8.64847 135.78 8.3697 135.52 8.00113C135.269 7.62314 135.144 7.18844 135.144 6.69703C135.144 6.32849 135.204 5.98828 135.325 5.67644C135.455 5.35514 135.65 5.0811 135.91 4.85429C136.171 4.61804 136.5 4.43377 136.9 4.30148C137.309 4.16917 137.792 4.10303 138.349 4.10303H141.972V11.6158H139.826V9.07845H138.767L137.206 11.6158H134.865L136.747 8.83746ZM137.29 6.69703C137.29 6.96165 137.383 7.15537 137.569 7.27821C137.764 7.40107 138.001 7.4625 138.279 7.4625H139.826V5.88907H138.279C138.001 5.88907 137.764 5.95521 137.569 6.08752C137.383 6.21983 137.29 6.42299 137.29 6.69703Z" fill="#266AC7"></path>
    <path d="M66.3106 26.4429H63.0498L62.3809 28.3424H60.0117L63.5654 18.4199H66.0738L69.6272 28.3424H66.9795L66.3106 26.4429ZM63.7604 24.4868H65.5999L64.6802 21.5384L63.7604 24.4868Z" fill="#266AC7"></path>
    <path d="M70.4629 20.8301H72.6091V23.6791H73.1665L75.229 20.8301H77.57L74.8526 24.3597L77.7094 28.3428H75.1731L73.1665 25.3519H72.6091V28.3428H70.4629V20.8301Z" fill="#266AC7"></path>
    <path d="M80.7096 28.5268C80.3102 28.5268 79.9524 28.4654 79.6365 28.3425C79.33 28.2197 79.0698 28.0543 78.8562 27.8465C78.6425 27.6292 78.48 27.3786 78.3685 27.0952C78.257 26.8021 78.2012 26.4855 78.2012 26.1453C78.2012 25.3989 78.4241 24.8271 78.87 24.4303C79.3253 24.0333 80.0082 23.835 80.9187 23.835H83.0229V23.523C83.0229 23.0694 82.916 22.7576 82.7023 22.5874C82.4887 22.4079 82.196 22.3181 81.8246 22.3181C81.4715 22.3181 81.2113 22.3749 81.044 22.4883C80.8769 22.6017 80.784 22.7812 80.7654 23.0269H78.6194C78.6378 22.6867 78.7215 22.3749 78.87 22.0913C79.0188 21.7984 79.2279 21.548 79.4971 21.3401C79.7759 21.1227 80.1149 20.9526 80.5145 20.8298C80.9139 20.7069 81.3739 20.6455 81.894 20.6455C82.3772 20.6455 82.8186 20.7022 83.2179 20.8156C83.6268 20.9195 83.9751 21.0944 84.2632 21.3401C84.5511 21.5763 84.7741 21.8882 84.9321 22.2756C85.0899 22.6537 85.1689 23.1167 85.1689 23.6648V26.4289C85.1689 26.8257 85.1782 27.1754 85.1968 27.4779C85.2155 27.7707 85.2434 28.059 85.2804 28.3425H83.2459C83.2272 28.1818 83.2086 28.04 83.1902 27.9174C83.1809 27.7945 83.1762 27.6432 83.1762 27.4636C82.9532 27.7661 82.6419 28.0213 82.2425 28.2292C81.8523 28.4275 81.3414 28.5268 80.7096 28.5268ZM81.4063 26.9959C81.8616 26.9959 82.2425 26.8636 82.5491 26.5989C82.8649 26.3345 83.0229 25.9705 83.0229 25.5075V25.1957H81.3366C81.0208 25.1957 80.784 25.2807 80.626 25.4509C80.4773 25.6209 80.403 25.8195 80.403 26.0463C80.403 26.3202 80.4773 26.547 80.626 26.7266C80.784 26.9061 81.044 26.9959 81.4063 26.9959Z" fill="#266AC7"></path>
    <path d="M86.0059 26.5567H86.7862C86.9812 26.2639 87.1206 25.8623 87.2042 25.3519C87.288 24.8322 87.3297 24.1281 87.3297 23.2399V20.8301H93.3916V26.5567H94.2278V30.1147H92.4162V28.3428H87.8174V30.1147H86.0059V26.5567ZM91.2456 26.5567V22.6161H89.3087V23.5233C89.3087 24.232 89.2714 24.8322 89.1972 25.3235C89.132 25.8149 89.0299 26.226 88.8904 26.5567H91.2456Z" fill="#266AC7"></path>
    <path d="M98.6895 28.5268C98.1507 28.5268 97.6444 28.4511 97.1706 28.3001C96.706 28.1393 96.3019 27.8984 95.9581 27.577C95.6144 27.2557 95.3451 26.8541 95.1499 26.3721C94.9548 25.8809 94.8574 25.3091 94.8574 24.6571V24.3735C94.8574 23.7497 94.9503 23.2065 95.136 22.7435C95.331 22.2805 95.5912 21.8929 95.9164 21.581C96.2508 21.2692 96.6411 21.0377 97.087 20.8865C97.5422 20.7258 98.0299 20.6455 98.5503 20.6455C99.7672 20.6455 100.687 20.9668 101.31 21.6094C101.932 22.2426 102.243 23.1638 102.243 24.3735V25.1532H97.0591C97.0684 25.446 97.1195 25.6966 97.2123 25.9045C97.3054 26.1028 97.4262 26.2682 97.5747 26.4005C97.7234 26.5329 97.8905 26.6322 98.0764 26.6982C98.2715 26.755 98.4758 26.7832 98.6895 26.7832C99.0984 26.7832 99.419 26.7218 99.6512 26.5989C99.8926 26.4668 100.051 26.292 100.125 26.0744H102.104C101.955 26.8966 101.588 27.5109 101.003 27.9174C100.417 28.3236 99.6465 28.5268 98.6895 28.5268ZM98.62 22.3749C98.4247 22.3749 98.2343 22.3985 98.0485 22.4458C97.8721 22.4929 97.7095 22.5733 97.5608 22.6867C97.4214 22.7906 97.3054 22.9276 97.2123 23.0978C97.1288 23.268 97.0824 23.4758 97.0731 23.7216H100.139C100.139 23.4569 100.097 23.2396 100.013 23.0694C99.9298 22.8994 99.8183 22.7622 99.6789 22.6583C99.5488 22.5544 99.391 22.4835 99.2051 22.4458C99.0194 22.3985 98.8243 22.3749 98.62 22.3749Z" fill="#266AC7"></path>
    <path d="M103.355 20.8301H105.961L107.717 24.5581L109.473 20.8301H111.995V28.3428H109.961V23.7359L108.372 26.9253H106.979L105.39 23.7359V28.3428H103.355V20.8301Z" fill="#266AC7"></path>
    <path d="M113.385 20.8301H115.475V25.366L118.61 20.8301H120.492V28.3428H118.402V23.8068L115.266 28.3428H113.385V20.8301Z" fill="#266AC7"></path>
    <path d="M123.424 25.5646C122.867 25.3754 122.458 25.0967 122.198 24.7281C121.947 24.3503 121.822 23.9154 121.822 23.4242C121.822 23.0556 121.882 22.7154 122.003 22.4034C122.133 22.0822 122.328 21.8082 122.588 21.5813C122.848 21.3451 123.178 21.1608 123.578 21.0285C123.986 20.8962 124.47 20.8301 125.027 20.8301H128.65V28.3428H126.504V25.8055H125.445L123.884 28.3428H121.543L123.424 25.5646ZM123.968 23.4242C123.968 23.6886 124.061 23.8824 124.247 24.0052C124.442 24.1281 124.678 24.1895 124.957 24.1895H126.504V22.6161H124.957C124.678 22.6161 124.442 22.6824 124.247 22.8145C124.061 22.9468 123.968 23.15 123.968 23.4242Z" fill="#266AC7"></path>
    <path d="M68.1498 45.0691H60.8477V35.1465H63.356V42.9711H66.7004V35.1465H69.2088V42.9711H70.3238V46.9118H68.1498V45.0691Z" fill="#266AC7"></path>
    <path d="M71.375 37.5566H73.4654V42.0926L76.6009 37.5566H78.4821V45.0695H76.3918V40.5335L73.2563 45.0695H71.375V37.5566Z" fill="#266AC7"></path>
    <path d="M83.4756 45.2533C82.2214 45.2533 81.2599 44.9273 80.591 44.2751C79.9312 43.6136 79.6016 42.6497 79.6016 41.3834V41.1C79.6016 39.8903 79.9312 38.9691 80.591 38.3358C81.2599 37.6933 82.2214 37.3719 83.4756 37.3719V35.1465H85.6216V37.3719C86.8665 37.3719 87.8235 37.6933 88.4924 38.3358C89.1612 38.9691 89.4957 39.8903 89.4957 41.1V41.3834C89.4957 42.6497 89.1612 43.6136 88.4924 44.2751C87.8235 44.9273 86.8665 45.2533 85.6216 45.2533V47.9039H83.4756V45.2533ZM87.3217 41.1C87.3217 40.4668 87.1778 39.9896 86.8899 39.6684C86.6018 39.3469 86.1511 39.1864 85.5381 39.1864V43.4388C86.1511 43.4388 86.6018 43.264 86.8899 42.9143C87.1778 42.5552 87.3217 42.0451 87.3217 41.3834V41.1ZM81.7755 41.3834C81.7755 42.0545 81.9195 42.5647 82.2076 42.9143C82.4955 43.264 82.9461 43.4388 83.5592 43.4388V39.1864C82.9275 39.1864 82.4723 39.3518 82.1935 39.6825C81.9149 40.0132 81.7755 40.4857 81.7755 41.1V41.3834Z" fill="#266AC7"></path>
    <path d="M90.6035 37.5564H92.5824V38.5771C92.6753 38.4259 92.7915 38.2794 92.9307 38.1376C93.0794 37.9864 93.2513 37.8541 93.4463 37.7407C93.6416 37.6273 93.8598 37.5374 94.1013 37.4714C94.3429 37.4053 94.6031 37.3721 94.8817 37.3721C95.9222 37.3721 96.7119 37.6841 97.2509 38.3076C97.7897 38.9314 98.0592 39.8621 98.0592 41.1002V41.3836C98.0592 42.0263 97.9847 42.5887 97.836 43.0704C97.6875 43.5524 97.4739 43.954 97.195 44.2753C96.9162 44.5967 96.5818 44.8425 96.1917 45.0124C95.8015 45.1732 95.3648 45.2535 94.8817 45.2535C94.4637 45.2535 94.0641 45.1589 93.6834 44.9699C93.3117 44.7716 93.0004 44.488 92.7495 44.1194V47.9041H90.6035V37.5564ZM94.3661 43.4533C94.7936 43.4533 95.1464 43.2785 95.4252 42.9288C95.7133 42.5792 95.8573 42.0642 95.8573 41.3836V41.1002C95.8573 40.448 95.7179 39.9663 95.4391 39.6543C95.1698 39.333 94.812 39.1723 94.3661 39.1723C93.9109 39.1723 93.5253 39.3189 93.2095 39.6118C92.903 39.8954 92.7495 40.3205 92.7495 40.8875V41.5963C92.7495 42.1917 92.903 42.6499 93.2095 42.9713C93.5253 43.2926 93.9109 43.4533 94.3661 43.4533Z" fill="#266AC7"></path>
    <path d="M101.477 45.2535C101.078 45.2535 100.72 45.1921 100.404 45.0692C100.098 44.9464 99.8374 44.781 99.6238 44.573C99.4101 44.3556 99.2476 44.1053 99.1361 43.8217C99.0246 43.5288 98.9688 43.2122 98.9688 42.872C98.9688 42.1254 99.1917 41.5538 99.6376 41.1568C100.093 40.76 100.776 40.5614 101.686 40.5614H103.79V40.2496C103.79 39.7961 103.684 39.4843 103.47 39.3141C103.256 39.1346 102.964 39.0448 102.592 39.0448C102.239 39.0448 101.979 39.1016 101.812 39.215C101.644 39.3284 101.552 39.5079 101.533 39.7536H99.387C99.4054 39.4134 99.4891 39.1016 99.6376 38.818C99.7863 38.525 99.9954 38.2746 100.265 38.0667C100.544 37.8494 100.883 37.6792 101.282 37.5564C101.681 37.4335 102.141 37.3721 102.662 37.3721C103.145 37.3721 103.586 37.4289 103.986 37.5423C104.394 37.6462 104.743 37.821 105.031 38.0667C105.319 38.303 105.542 38.6148 105.7 39.0023C105.857 39.3804 105.936 39.8434 105.936 40.3914V43.1556C105.936 43.5524 105.946 43.9021 105.964 44.2046C105.983 44.4974 106.011 44.7856 106.048 45.0692H104.013C103.995 44.9085 103.976 44.7667 103.958 44.6438C103.948 44.521 103.944 44.3699 103.944 44.1903C103.721 44.4928 103.41 44.7478 103.01 44.9559C102.62 45.1542 102.109 45.2535 101.477 45.2535ZM102.174 43.7226C102.629 43.7226 103.01 43.5903 103.317 43.3256C103.632 43.061 103.79 42.6972 103.79 42.2342V41.9224H102.104C101.788 41.9224 101.552 42.0074 101.394 42.1776C101.245 42.3476 101.171 42.5459 101.171 42.7727C101.171 43.0469 101.245 43.2736 101.394 43.4533C101.552 43.6328 101.812 43.7226 102.174 43.7226Z" fill="#266AC7"></path>
    <path fill-rule="evenodd" clip-rule="evenodd" d="M1.60333 9.17055e-05C0.903919 2.40775 0.00544087 14.166 9.64497e-05 22.3002C-0.00667316 32.1505 0.339644 33.4796 2.0748 37.5001C3.93643 41.8142 8.68514 45.8109 13.5026 47.1175C16.1004 47.8223 17.4443 47.8769 32.2769 47.8769H48.2532V42.5852V37.2938L35.8719 37.2876C22.4074 37.2812 20.548 37.0708 17.9698 35.2611C14.5305 32.8465 13.2813 29.9892 13.2963 20.5994C13.3017 17.1693 13.5514 11.4714 13.8514 7.93744C14.1511 4.40343 14.4299 0.361165 14.4299 9.17055e-05C13.3611 -4.412e-05 13.8955 9.17055e-05 8.01664 0.000109849C2.13777 1.85078e-05 2.67222 -7.44615e-05 1.60333 9.17055e-05Z" fill="#266AC7"></path>
    <path fill-rule="evenodd" clip-rule="evenodd" d="M29.7253 18.048L29.7257 34.6479H36.1389H42.5523V18.1592V1.15831e-05H36.1638L29.7249 0L29.7253 18.048Z" fill="red"></path>
</svg>